HIERARCHY
ROOT Hips
{
  OFFSET 90.7885 88.945 -76.2838
  CHANNELS 6 Xposition Yposition Zposition Zrotation Xrotation Yrotation
  JOINT LeftUpLeg
  {
    OFFSET 8.64259 1.95398 -2.38835
    CHANNELS 3 Zrotation Xrotation Yrotation
    JOINT LeftLeg
    {
      OFFSET 43.7702 0 0
      CHANNELS 3 Zrotation Xrotation Yrotation
      JOINT LeftFoot
      {
        OFFSET 40.6238 0 0
        CHANNELS 3 Zrotation Xrotation Yrotation
        JOINT LeftToeBase
        {
          OFFSET 12.7242 0 0
          CHANNELS 3 Zrotation Xrotation Yrotation
          End Site
          {
            OFFSET 0 0 0
          }
        }
      }
    }
  }
  JOINT RightUpLeg
  {
    OFFSET -8.2249 1.95398 -2.59336
    CHANNELS 3 Zrotation Xrotation Yrotation
    JOINT RightLeg
    {
      OFFSET 43.5653 0 0
      CHANNELS 3 Zrotation Xrotation Yrotation
      JOINT RightFoot
      {
        OFFSET 40.6238 0 0
        CHANNELS 3 Zrotation Xrotation Yrotation
        JOINT RightToeBase
        {
          OFFSET 12.7242 0 0
          CHANNELS 3 Zrotation Xrotation Yrotation
          End Site
          {
            OFFSET 0 0 0
          }
        }
      }
    }
  }
  JOINT Spine
  {
    OFFSET 0.165834 0.87714 6.61349
    CHANNELS 3 Zrotation Xrotation Yrotation
    JOINT Spine1
    {
      OFFSET 7.38963 1.71661e-005 0
      CHANNELS 3 Zrotation Xrotation Yrotation
      JOINT Spine2
      {
        OFFSET 11.9445 1.14441e-005 0
        CHANNELS 3 Zrotation Xrotation Yrotation
        JOINT Spine3
        {
          OFFSET 14.7254 4.19617e-005 0
          CHANNELS 3 Zrotation Xrotation Yrotation
          JOINT Spine4
          {
            OFFSET 10.9679 0 0
            CHANNELS 3 Zrotation Xrotation Yrotation
            JOINT RightShoulder
            {
              OFFSET 2.46616 -1.6653 3.69651
              CHANNELS 3 Zrotation Xrotation Yrotation
              JOINT RightArm
              {
                OFFSET 13.0012 0 0
                CHANNELS 3 Zrotation Xrotation Yrotation
                JOINT RightForeArm
                {
                  OFFSET 28.7848 1.52588e-005 0
                  CHANNELS 3 Zrotation Xrotation Yrotation
                  JOINT RightHand
                  {
                    OFFSET 26.5688 1.52588e-005 0
                    CHANNELS 3 Zrotation Xrotation Yrotation
                    End Site
                    {
                      OFFSET 0 0 0
                    }
                  }
                }
              }
            }
            JOINT LeftShoulder
            {
              OFFSET 2.38034 -1.29275 -3.7523
              CHANNELS 3 Zrotation Xrotation Yrotation
              JOINT LeftArm
              {
                OFFSET 16.3182 6.10352e-005 0
                CHANNELS 3 Zrotation Xrotation Yrotation
                JOINT LeftForeArm
                {
                  OFFSET 27.0901 0 0
                  CHANNELS 3 Zrotation Xrotation Yrotation
                  JOINT LeftHand
                  {
                    OFFSET 24.5451 1.52588e-005 0
                    CHANNELS 3 Zrotation Xrotation Yrotation
                    End Site
                    {
                      OFFSET 0 0 0
                    }
                  }
                }
              }
            }
            JOINT Neck
            {
              OFFSET 5.0226 -0.0266342 0
              CHANNELS 3 Zrotation Xrotation Yrotation
              JOINT Head
              {
                OFFSET 6.69363 2.86102e-005 0
                CHANNELS 3 Zrotation Xrotation Yrotation
                End Site
                {
                  OFFSET 0 0 0
                }
              }
            }
          }
        }
      }
    }
  }
}
MOTION
Frames:	12
Frame Time:	0.0416667
-297.527 86.955 -248.551 -110.525 53.5115 -77.0896 -170.233 22.943 88.1891 -60.5974 12.0135 -2.82549 79.9091 9.40417 3.28145 21.3722 3.37499 -3.09709 178.085 18.3405 77.247 -91.8939 -6.71509 -3.48551 74.1495 -7.8571 -4.2454 15.1712 -1.53578 5.23009 -0.319032 7.94897 -89.8606 10.9768 -0.570548 0.331599 -0.69403 -0.555406 0.356384 -23.2301 -0.643826 0.144788 -3.21746 -0.643844 0.14478 93.6448 -27.4277 -100.204 34.9495 4.16571 5.64561 -57.4863 -8.1181 -94.0572 -17.5641 -1.53863 -15.25 -86.9125 -48.9863 83.1913 -16.4719 35.0256 2.27318 45.0332 -11.7548 -83.851 -12.7203 0.633138 -12.349 23.0359 3.5092 -2.75199 -14.6954 4.10684 2.00352 
-292.403 88.0358 -241.857 -113.29 52.9665 -72.9258 -171.751 25.3735 89.4351 -55.2111 9.39677 -2.41732 70.9848 5.33836 2.97469 19.9338 5.48476 -5.39234 175.436 1.42728 76.5703 -83.9119 -14.393 -5.43687 77.0722 -9.50342 -4.1697 15.2705 -1.87066 5.78691 1.04315 7.80524 -90.043 11.2664 2.05603 -0.288837 -0.403084 2.04133 -0.379074 -22.9498 2.04775 0.342633 -2.93716 2.04773 0.342626 93.8537 -21.3964 -101.791 31.0156 8.18643 4.97631 -47.7114 -4.35468 -96.7186 -28.147 -1.11467 -11.3955 -84.2558 -45.2732 86.778 -30.9343 32.8002 27.2422 40.3369 -20.2217 -93.5951 -15.67 1.39787 -17.1667 15.7394 -2.48138 -3.61966 -10.8198 -1.46726 0.882627 
-285.77 92.0156 -234.457 -117.281 53.4083 -69.0582 -174.607 17.5526 91.1951 -29.5396 10.5686 -2.24084 51.2757 -2.60141 1.67249 21.4875 4.88376 -4.88776 173.913 -12.1669 79.5564 -66.1173 -24.6929 -8.85671 79.1244 -9.67146 -0.754096 18.1234 -1.44519 4.77019 2.30062 7.62329 -90.288 11.6557 4.44108 -1.03782 -0.0080425 4.39108 -1.23263 -22.6055 4.54724 0.347736 -2.59281 4.54725 0.347731 94.9853 -11.8495 -102.762 33.1041 5.0209 9.02781 -42.8841 -5.51296 -93.0316 -33.8951 -1.47764 -7.84416 -82.655 -44.3902 89.2483 -26.5293 32.4767 36.2765 36.2675 -25.0702 -100.771 -12.618 1.12737 -17.988 4.91803 -6.04511 -2.07903 -8.72739 -5.51383 -1.36496 
-276.614 93.9073 -224.989 -109.491 53.4659 -73.6674 -176.576 22.4127 93.7472 -19.9683 21.5052 -0.956443 51.4615 -2.99322 0.383128 10.7307 -2.32558 4.8818 173.017 -7.50194 84.7717 -52.6091 -19.2956 -5.4593 77.2286 -9.08179 -2.866 17.4622 -2.85585 7.41009 2.10185 7.05179 -90.3556 12.799 4.00414 -1.18769 1.13355 3.94797 -1.36301 -21.4515 4.17569 0.0727027 -1.4389 4.17567 0.072707 94.546 -12.0493 -103.851 32.9168 -2.03019 11.2643 -39.4287 -7.24786 -87.5038 -38.5322 -1.37845 -7.23626 -83.6928 -45.1911 87.661 -21.9027 28.2192 33.6106 35.6956 -23.7845 -101.663 -10.6003 0.781623 -16.4109 4.54533 -5.79369 -3.55669 -10.9902 -5.08758 0.12981 
-266.554 91.2834 -215.197 -107.773 49.8149 -76.5287 -174.254 32.4525 93.6659 -47.003 23.7642 -0.43826 62.4302 1.47016 5.04111 19.8043 2.95036 -2.21988 174.07 1.68443 86.9418 -55.8425 -13.765 -4.06813 81.386 -11.5295 -6.73944 29.356 -4.1982 9.94222 1.06389 7.61235 -90.1271 11.6551 2.05666 -0.467698 -0.0143566 2.03408 -0.557796 -22.5626 2.1021 0.172314 -2.54993 2.10212 0.172311 93.9231 -16.9998 -103.26 35.5095 -4.55046 16.0839 -34.5279 -9.11617 -81.9876 -35.8944 -0.330007 -10.1666 -88.2888 -50.619 81.405 -8.76562 26.1845 16.546 37.2295 -22.0313 -100.476 -8.06644 0.485554 -15.9147 19.2646 -2.79101 -1.95205 -16.6625 -1.77456 -2.6026 
-256.836 87.8507 -204.847 -108.995 47.8345 -78.2256 -167.388 35.5047 92.4853 -77.2642 11.0696 0.669609 71.9228 5.89311 3.50105 22.7643 3.42252 -3.48301 174.556 11.6658 84.9459 -62.6401 -13.9995 -4.22812 91.9627 -16.2755 -3.16514 18.7395 -0.162719 2.19373 -0.152419 8.05831 -89.6823 10.76 -0.156822 0.644935 -0.91106 -0.128295 0.651204 -23.4462 -0.343408 0.567991 -3.43351 -0.343402 0.567991 94.012 -19.9262 -101.879 43.7835 -12.1448 24.5404 -35.1494 -13.1858 -71.0363 -31.0311 -0.323134 -11.6876 -88.442 -50.1276 81.0992 7.66057 22.297 -7.59521 29.7377 -20.1396 -102.204 -10.0401 0.68274 -15.8174 24.2087 1.31058 -5.77325 -17.0416 3.06665 1.7089 
-248.779 87.5468 -196.712 -110.342 47.7872 -74.6344 -164.023 25.3577 100.121 -90.0189 6.6219 3.13949 68.1244 4.28784 3.2969 21.0038 4.6441 -4.61998 175.61 19.7341 89.3401 -63.5927 -17.3504 -3.02427 83.2599 -13.0358 -7.38239 15.4958 -0.702025 3.70803 -1.15235 8.14156 -89.7711 10.5963 -2.18991 0.653885 -1.07314 -2.15902 0.749649 -23.622 -2.2851 -0.0348102 -3.60938 -2.28509 -0.034814 95.7261 -18.9652 -98.0706 55.3956 -12.7475 38.6636 -43.8678 -15.1155 -72.6874 -24.0077 -0.238237 -17.1721 -85.8519 -43.8906 83.9546 11.0813 10.5876 -22.142 25.8467 -16.7704 -103.838 -9.68365 0.751017 -17.6791 22.6358 5.78658 -6.0551 -14.8456 7.43194 1.641 
-242.449 91.5732 -188.973 -117.466 45.365 -69.25 -165.897 -1.35305 103.545 -76.8809 18.6887 4.32654 61.9605 1.71309 5.69661 24.8083 5.04483 -6.19571 176.176 15.4555 89.6532 -50.153 -17.2507 -3.87067 67.3066 -4.02326 -5.51403 15.0173 -1.45298 5.11692 -2.62007 8.35516 -89.5767 10.1942 -5.02754 1.25998 -1.46801 -4.96722 1.48051 -24.08 -5.17322 -0.313212 -4.06739 -5.17321 -0.313215 98.2342 -14.9603 -92.6845 64.7935 -18.2901 50.4204 -45.3193 -5.42004 -73.649 -19.6945 0.485196 -23.6924 -85.9956 -32.3932 81.5292 7.16708 8.18929 -20.6981 23.9434 -15.6462 -104.29 -6.92316 0.369482 -15.7161 11.5095 11.6004 -6.03841 -12.4571 12.2206 6.57958 
-235.494 95.5809 -179.168 -115.405 48.9903 -69.0079 -171.071 -12.8336 95.2762 -55.592 19.6573 3.20113 65.9857 3.47812 5.8433 24.1951 3.20436 -3.53198 176.751 13.6206 90.3008 -26.9332 -25.2925 -4.71449 54.1381 2.0902 2.31294 17.2574 0.327556 1.62877 -2.71675 7.70439 -90.1973 11.4808 -5.49733 0.166941 -0.178519 -5.48462 0.409452 -22.8025 -5.2926 -1.49771 -2.78987 -5.2926 -1.49771 96.3438 -13.4362 -98.3067 60.6871 -4.211 57.5074 -38.2927 -2.78458 -76.8549 -17.5077 1.37779 -30.2016 -84.558 -27.1757 83.2091 8.02767 17.9746 -29.1089 31.9408 -18.969 -99.3658 -8.24378 0.380877 -13.5426 3.49818 14.2903 -0.714547 -14.5633 13.3901 8.33443 
-226.621 94.9481 -167.482 -107.333 53.5228 -73.7829 -174.176 -4.62972 92.1555 -47.7886 14.6018 1.5022 67.938 4.00933 1.85827 34.8374 1.93958 -4.54736 179.505 24.259 89.9631 -40.0435 -23.1155 -5.17534 66.6817 -3.54246 0.220873 15.7788 0.497338 1.57341 -1.93212 7.18636 -90.9065 12.4795 -4.27002 -1.32249 0.815039 -4.32407 -1.13297 -21.759 -3.67509 -2.54597 -1.74632 -3.6751 -2.54598 94.9735 -17.8429 -100.37 52.2767 3.32119 50.0651 -38.1608 -7.67287 -82.7347 -24.7996 2.0894 -26.6689 -86.0728 -36.4093 82.2655 7.49821 22.7423 -24.6253 31.8795 -22.0152 -102.738 -5.19315 0.196351 -15.7145 8.38576 14.0285 1.8105 -14.6131 12.8535 6.21851 
-217.264 91.9538 -155.4 -113.048 54.0911 -67.6278 -172.56 0.737858 92.0413 -52.5175 11.3233 0.300027 82.0679 10.0128 1.63033 36.8121 4.38317 -9.06809 178.723 26.3878 87.9401 -71.6251 -9.72653 -3.22489 74.937 -7.29556 0.00867746 17.8075 -0.00749484 2.14635 -1.27211 7.86792 -90.7791 11.1216 -2.89306 -1.2633 -0.546617 -2.94585 -1.13468 -23.0952 -2.37966 -2.0746 -3.08256 -2.37966 -2.07461 92.2879 -28.3144 -102.747 41.4499 6.26926 29.2057 -41.6978 -6.55627 -92.0678 -27.6278 0.664833 -19.2221 -87.0127 -46.6 82.6323 -0.852933 27.4485 -4.93465 26.2688 -22.2554 -106.547 -7.67576 0.426545 -15.7872 20.5305 11.2264 -6.15404 -19.0688 11.9287 6.15812 
-208.844 89.8586 -144.107 -110.849 52.428 -69.8734 -172.558 14.9337 92.7952 -59.0242 11.9303 -0.0340307 85.2745 11.3139 0.510941 21.6589 5.54999 -5.95384 174.01 21.8441 82.5389 -92.3135 -6.6142 -1.9906 72.9125 -7.03828 -2.579 13.9617 -0.264605 3.16601 -0.498061 7.75414 -90.6728 11.3588 -1.30501 -1.21368 -0.311894 -1.35716 -1.15506 -22.8462 -0.879947 -1.54972 -2.83354 -0.879972 -1.54973 96.204 -27.8168 -94.6301 36.3935 5.96683 3.45598 -51.4421 -0.295357 -103.012 -23.7789 -1.05931 -13.3105 -84.6854 -48.533 86.5185 -23.5495 21.7421 23.197 28.4755 -21.7748 -106.861 -12.7183 1.1326 -17.607 23.2108 5.82286 -7.04898 -19.0274 7.39236 4.48992 
